<svg xmlns="http://www.w3.org/2000/svg" width="1024" height="1024" viewBox="0 0 24 24" fill="none" stroke="#cdd6f4" stroke-width="1.5" stroke-linecap="round" stroke-linejoin="round">
  <!-- Background rounded rectangle -->
  <rect x="1" y="1" width="22" height="22" rx="5" ry="5" fill="#1e1e2e" stroke="none"/>
  <!-- Document shape -->
  <path d="M6 22a2 2 0 0 1-2-2V4a2 2 0 0 1 2-2h8a2.4 2.4 0 0 1 1.704.706l3.588 3.588A2.4 2.4 0 0 1 20 8v12a2 2 0 0 1-2 2z" />
  <!-- Folded corner -->
  <path d="M14 2v5a1 1 0 0 0 1 1h5" />
  <!-- Grid lines (spreadsheet) -->
  <path d="M8 13h2" />
  <path d="M14 13h2" />
  <path d="M8 17h2" />
  <path d="M14 17h2" />
</svg>
